<svg width="30" height="30" viewBox="0 0 30 30" fill="none" xmlns="http://www.w3.org/2000/svg">
<path fill-rule="evenodd" clip-rule="evenodd" d="M17.4095 22.4998C18.0962 22.4998 18.6529 21.9402 18.6529 21.2498V18.7498C18.6529 18.0595 18.0962 17.4998 17.4095 17.4998C16.7228 17.4998 16.1661 18.0595 16.1661 18.7498V21.2498C16.1661 21.9402 16.7228 22.4998 17.4095 22.4998ZM12.4366 22.4998C13.1233 22.4998 13.68 21.9402 13.68 21.2498V18.7498C13.68 18.0595 13.1233 17.4998 12.4366 17.4998C11.7499 17.4998 11.1932 18.0595 11.1932 18.7498V21.2498C11.1932 21.9402 11.7499 22.4998 12.4366 22.4998ZM23.6267 7.49996H21.9107L19.7596 3.18746C19.5805 2.75491 19.1757 2.45942 18.7111 2.42198C18.2465 2.38454 17.8001 2.61145 17.5547 3.00978C17.3092 3.40812 17.306 3.91098 17.5463 4.31246L19.1255 7.49996H10.72L12.2991 4.31246C12.5495 3.70805 12.2935 3.01184 11.7123 2.71641C11.1311 2.42099 10.4216 2.62646 10.0858 3.18746L7.93469 7.49996H6.21877C4.40438 7.5277 2.87306 8.86398 2.59068 10.666C2.3083 12.4679 3.35679 14.2128 5.07482 14.8L5.99495 24.125C6.18722 26.0483 7.80235 27.5096 9.72522 27.5H20.1451C22.068 27.5096 23.6831 26.0483 23.8753 24.125L24.7955 14.8C26.5175 14.211 27.5659 12.4592 27.2768 10.6539C26.9878 8.84853 25.4456 7.51599 23.6267 7.49996ZM21.3754 23.8749C21.3113 24.516 20.7729 25.0031 20.132 24.9999H9.71212C9.07117 25.0031 8.53279 24.516 8.4687 23.8749L7.58587 14.9999H22.2582L21.3754 23.8749ZM23.6274 12.4998H6.21951C5.53279 12.4998 4.97609 11.9402 4.97609 11.2498C4.97609 10.5595 5.53279 9.99983 6.21951 9.99983H23.6274C24.3141 9.99983 24.8708 10.5595 24.8708 11.2498C24.8708 11.9402 24.3141 12.4998 23.6274 12.4998Z" fill="#FAFAFA"/>
</svg>
