<svg width="24" height="24" viewBox="0 0 24 24" fill="none" xmlns="http://www.w3.org/2000/svg">
<path fill-rule="evenodd" clip-rule="evenodd" d="M15.71 8.29014C15.5222 8.10083 15.2666 7.99434 15 7.99434C14.7333 7.99434 14.4778 8.10083 14.29 8.29014L12 10.5901L9.70998 8.29014C9.31786 7.89802 8.68211 7.89802 8.28998 8.29014C7.89786 8.68226 7.89786 9.31802 8.28998 9.71014L10.59 12.0001L8.28998 14.2901C8.10067 14.4779 7.99419 14.7335 7.99419 15.0001C7.99419 15.2668 8.10067 15.5224 8.28998 15.7101C8.47775 15.8995 8.73335 16.0059 8.99998 16.0059C9.26662 16.0059 9.52222 15.8995 9.70998 15.7101L12 13.4101L14.29 15.7101C14.4778 15.8995 14.7333 16.0059 15 16.0059C15.2666 16.0059 15.5222 15.8995 15.71 15.7101C15.8993 15.5224 16.0058 15.2668 16.0058 15.0001C16.0058 14.7335 15.8993 14.4779 15.71 14.2901L13.41 12.0001L15.71 9.71014C15.8993 9.52237 16.0058 9.26678 16.0058 9.00014C16.0058 8.7335 15.8993 8.47791 15.71 8.29014ZM19.0701 4.93008C16.5593 2.33052 12.8413 1.28796 9.34501 2.20311C5.84872 3.11827 3.11827 5.84872 2.20311 9.34501C1.28796 12.8413 2.33052 16.5593 4.93008 19.0701C7.44083 21.6696 11.1589 22.7122 14.6552 21.7971C18.1515 20.8819 20.8819 18.1515 21.7971 14.6552C22.7122 11.1589 21.6697 7.44083 19.0701 4.93008ZM17.6598 17.66C14.9627 20.3601 10.7339 20.7791 7.55933 18.6607C4.3848 16.5424 3.14861 12.4766 4.60673 8.94974C6.06484 5.42285 9.81119 3.41701 13.5548 4.15883C17.2984 4.90065 19.9968 8.18354 19.9998 12C20.007 14.1234 19.1644 16.1615 17.6598 17.66Z" fill="#272525"/>
</svg>
